:version 1.10
:name ASF
:units
  mass 1
  length 1
  angle deg
:documentation
  ASF file generated by Kaydara
:root
  axis xyz
  order  tx ty tz rx ry rz
  position 0 0 0
  orientation 0 0 0
:bonedata
  begin
    id 1
    name RightUpLegDummy
    direction -1 2.30186e-007 8.31532e-007
    length 4.46685
    axis 0 0 0 xyz
  end
  begin
    id 2
    name RightUpLeg
    direction -2.30187e-007 -1 1.24343e-010
    length 16.4045
    axis -3.49089 -0.000906625 0.000286804 xyz
    dof rx ry rz
  end
  begin
    id 3
    name RightLeg
    direction -2.30181e-007 -1 -4.17157e-009
    length 17.5097
    axis 3.68512 0.0193738 -0.131023 xyz
    dof rx ry rz
  end
  begin
    id 4
    name RightFoot
    direction 8.31421e-007 -4.51202e-011 1
    length 6.49508
    axis 4.81691e-005 -0.120479 -0.188788 xyz
    dof rx ry rz
  end
  begin
    id 5
    name RightToes
    direction 0.00124746 -0.014064 0.9999
    length 3.85082
    axis 0.000481921 0.542163 -0.142578 xyz
    dof rx ry rz
  end
  begin
    id 6
    name SpineDummy
    direction 0.0717043 0.9409 -0.331007
    length 10.0032
    axis 0 0 0 xyz
  end
  begin
    id 7
    name Spine
    direction 2.30186e-007 1 4.58806e-011
    length 9.84055
    axis -0.001389 0.000121418 2.40972e-006 xyz
    dof rx ry rz
  end
  begin
    id 8
    name Spine1
    direction 0 0 0
    length 0
    axis -0.001389 0.000121451 1.30017e-006 xyz
    dof rx ry rz
  end
  begin
    id 9
    name HEadDummy
    direction -0.00347485 0.950688 -0.310128
    length 8.00997
    axis -0.001389 0.000121451 1.30017e-006 xyz
  end
  begin
    id 10
    name HEad
    direction -0.0222688 0.980941 0.193023
    length 5.12695
    axis -0.001389 0.000121451 1.30017e-006 xyz
    dof rx ry rz
  end
  begin
    id 11
    name LeftShoulder1Dummy
    direction 0.988871 0.146793 -0.0242004
    length 3.5792
    axis -0.001389 0.000121451 1.30017e-006 xyz
  end
  begin
    id 12
    name LeftShoulder1
    direction 0.993832 0.108932 0.020779
    length 4.16823
    axis -0.001389 0.000121451 1.30017e-006 xyz
    dof rx ry rz
  end
  begin
    id 13
    name LeftArm
    direction 1 3.44807e-006 -8.31404e-007
    length 9.91437
    axis -23.1894 0.134784 0.967509 xyz
    dof rx ry rz
  end
  begin
    id 14
    name LeftForeArm
    direction 1 3.44842e-006 -8.31581e-007
    length 9.08575
    axis -9.91835 -0.06569 -0.177793 xyz
    dof rx ry rz
  end
  begin
    id 15
    name LeftHand
    direction 0.992938 -0.0411636 0.11126
    length 5.32135
    axis -0.00960232 -0.00340091 0.185173 xyz
    dof rx ry rz
  end
  begin
    id 16
    name RightShoulderDummy
    direction -0.988871 0.146793 -0.0241962
    length 3.5792
    axis -0.001389 0.000121451 1.30017e-006 xyz
  end
  begin
    id 17
    name RightShoulder
    direction -0.993832 0.108933 0.0207785
    length 4.16823
    axis 0.215806 0.000203643 -0.0068026 xyz
    dof rx ry rz
  end
  begin
    id 18
    name RightArm
    direction -1 3.90912e-006 8.31284e-007
    length 9.91437
    axis -23.2009 -0.134239 -0.964101 xyz
    dof rx ry rz
  end
  begin
    id 19
    name RightForeArm
    direction -1 3.90882e-006 8.31502e-007
    length 9.08575
    axis -9.92322 0.0658061 0.178867 xyz
    dof rx ry rz
  end
  begin
    id 20
    name RightHand
    direction -0.992843 -0.0414603 0.112003
    length 5.28593
    axis -0.00960638 0.00330671 -0.185228 xyz
    dof rx ry rz
  end
  begin
    id 21
    name LeftUpLegDummy
    direction 1 -2.30186e-007 -8.31532e-007
    length 4.46685
    axis 0 0 0 xyz
  end
  begin
    id 22
    name LeftUpLeg
    direction -2.30187e-007 -1 6.00931e-010
    length 16.4045
    axis -3.48766 0.00143442 -0.000524262 xyz
    dof rx ry rz
  end
  begin
    id 23
    name LeftLeg
    direction -2.30187e-007 -1 1.6669e-009
    length 17.5097
    axis 3.68178 -0.00654042 -0.000285133 xyz
    dof rx ry rz
  end
  begin
    id 24
    name LeftFoot
    direction 8.31532e-007 -4.54478e-011 1
    length 6.49508
    axis 1.87233e-006 4.66016e-005 -8.6538e-006 xyz
    dof rx ry rz
  end
  begin
    id 25
    name LeftToes
    direction 0.00818058 -0.00485161 0.999955
    length 3.85048
    axis 1.06247e-005 4.65869e-005 -8.65513e-006 xyz
    dof rx ry rz
  end
:hierarchy
  begin
    root RightUpLegDummy SpineDummy LeftUpLegDummy
    RightUpLegDummy RightUpLeg
    RightUpLeg RightLeg
    RightLeg RightFoot
    RightFoot RightToes
    SpineDummy Spine
    Spine Spine1
    Spine1 HEadDummy LeftShoulder1Dummy RightShoulderDummy
    HEadDummy HEad
    LeftShoulder1Dummy LeftShoulder1
    LeftShoulder1 LeftArm
    LeftArm LeftForeArm
    LeftForeArm LeftHand
    RightShoulderDummy RightShoulder
    RightShoulder RightArm
    RightArm RightForeArm
    RightForeArm RightHand
    LeftUpLegDummy LeftUpLeg
    LeftUpLeg LeftLeg
    LeftLeg LeftFoot
    LeftFoot LeftToes
  end

:SAMPLES-PER-SECOND 30
:FULLY-SPECIFIED
:DEGREES
54
root  41.06 33.5423 -65.6679 1.90617 -55.0027 -1.49257
RightUpLeg  -8.87247 5.77936 0.651737
RightLeg  15.8697 -4.84587 -1.04417
RightFoot  2.50445 0.0245018 -0.268444
RightToes  -26.6519 -0.121558 -0.22609
Spine  5.31607 -2.47334 0.115338
Spine1  9.81234 -4.82781 -0.429846
HEad  10.9695 2.22403 7.3463
LeftShoulder1  0 -2.42657e-020 -4.95415e-022
LeftArm  13.1807 3.1872 -79.9012
LeftForeArm  47.6426 -71.4339 -31.9019
LeftHand  0.0776026 1.00928 8.36588
RightShoulder  0 2.42657e-020 1.07489e-018
RightArm  7.87723 -17.556 70.4529
RightForeArm  144.847 77.4288 126.698
RightHand  -4.18339 13.2937 -34.4495
LeftUpLeg  -6.46341 8.35792 2.73066
LeftLeg  19.3491 1.39829 0.389856
LeftFoot  -3.2595 -0.00422732 -0.148585
LeftToes  -11.8932 8.72033e-007 1.17809e-007
55
root  41.0624 33.546 -65.7121 1.88157 -54.1397 -1.32827
RightUpLeg  -8.95045 5.06115 0.596514
RightLeg  15.931 -4.98437 -1.07951
RightFoot  2.39353 0.0243077 -0.260834
RightToes  -26.3837 -0.119828 -0.225233
Spine  5.271 -2.39852 0.0575912
Spine1  9.73071 -4.66693 -0.539161
HEad  11.0687 1.63437 7.51064
LeftShoulder1  0 -2.42657e-020 -4.95415e-022
LeftArm  13.7765 3.02621 -79.5006
LeftForeArm  48.4255 -70.7149 -30.4741
LeftHand  0.0478581 0.644687 8.03463
RightShoulder  0 2.42657e-020 1.07489e-018
RightArm  8.77526 -17.3935 69.9489
RightForeArm  145.661 77.6 125.605
RightHand  -4.4117 13.5299 -35.6246
LeftUpLeg  -6.76561 7.6874 2.64529
LeftLeg  19.3185 1.24953 0.34743
LeftFoot  -3.04806 -0.0035169 -0.131351
LeftToes  -11.862 8.72033e-007 1.17809e-007
56
root  41.0653 33.5451 -65.7584 1.81817 -53.4347 -1.16518
RightUpLeg  -9.01742 4.50367 0.546437
RightLeg  16.0128 -5.11358 -1.11507
RightFoot  2.24355 0.0239027 -0.250406
RightToes  -26.22 -0.118862 -0.224499
Spine  5.26765 -2.32288 0.00317514
Spine1  9.72561 -4.50486 -0.646541
HEad  11.0894 1.22299 7.68375
LeftShoulder1  0 -2.42657e-020 -4.95415e-022
LeftArm  14.7894 2.7722 -79.0727
LeftForeArm  47.8223 -70.1053 -29.3576
LeftHand  0.0462817 0.585673 8.56522
RightShoulder  0 2.42657e-020 1.07489e-018
RightArm  9.51272 -17.1264 69.4011
RightForeArm  146.288 77.7371 124.686
RightHand  -4.64005 13.5169 -37.3947
LeftUpLeg  -6.99422 7.16884 2.57752
LeftLeg  19.2816 1.07544 0.297972
LeftFoot  -2.8631 -0.00311505 -0.116348
LeftToes  -11.9946 8.72033e-007 1.17809e-007
57
root  41.0712 33.5415 -65.8042 1.71555 -52.7909 -0.964241
RightUpLeg  -9.15596 3.85655 0.456732
RightLeg  16.2265 -5.10392 -1.13296
RightFoot  2.05343 0.022861 -0.23054
RightToes  -26.0861 -0.117991 -0.223864
Spine  5.29719 -2.30155 -0.0678176
Spine1  9.79035 -4.44515 -0.803248
HEad  10.8794 1.0087 7.86103
LeftShoulder1  0 -2.42657e-020 -4.95415e-022
LeftArm  15.6753 2.72638 -78.7009
LeftForeArm  46.5691 -69.8655 -28.9405
LeftHand  0.0543688 0.590328 10.0363
RightShoulder  0 2.42657e-020 1.07489e-018
RightArm  9.97322 -16.6792 68.9724
RightForeArm  145.567 77.8411 123.955
RightHand  -4.62856 13.4745 -37.419
LeftUpLeg  -7.21244 6.68279 2.48232
LeftLeg  19.2574 0.931385 0.257336
LeftFoot  -2.68517 -0.00244948 -0.104523
LeftToes  -12.1329 8.72033e-007 1.17809e-007
58
root  41.074 33.5425 -65.8436 1.64688 -52.3055 -0.847295
RightUpLeg  -9.21539 3.49293 0.422262
RightLeg  16.3317 -5.20228 -1.16477
RightFoot  1.96984 0.0227513 -0.225592
RightToes  -26.0678 -0.11721 -0.223729
Spine  5.31801 -2.27642 -0.0955432
Spine1  9.83151 -4.3813 -0.877491
HEad  10.6586 0.867056 7.98243
LeftShoulder1  0 -2.42657e-020 -4.95415e-022
LeftArm  15.9667 2.92988 -78.657
LeftForeArm  46.1524 -69.8059 -28.8388
LeftHand  0.0541177 0.560351 10.5327
RightShoulder  0 2.42657e-020 1.07489e-018
RightArm  10.251 -16.3689 68.5043
RightForeArm  145.606 77.8858 123.634
RightHand  -4.61536 13.5697 -37.0703
LeftUpLeg  -7.3316 6.5594 2.46203
LeftLeg  19.1731 0.603448 0.164988
LeftFoot  -2.49641 -0.00188688 -0.086608
LeftToes  -12.2982 8.72033e-007 1.17809e-007
